<?xml version="1.0" encoding="UTF-8" standalone="no"?><!DOCTYPE svg PUBLIC "-//W3C//DTD SVG 1.1//EN" "http://www.w3.org/Graphics/SVG/1.1/DTD/svg11.dtd"><svg width="100%" height="100%" viewBox="0 0 1000 318" version="1.1" xmlns="http://www.w3.org/2000/svg" xmlns:xlink="http://www.w3.org/1999/xlink" xml:space="preserve" xmlns:serif="http://www.serif.com/" style="fill-rule:evenodd;clip-rule:evenodd;stroke-linejoin:round;stroke-miterlimit:2;"><rect id="logo-primary" serif:id="logo/primary" x="0" y="0" width="1000" height="318" style="fill:none;"/><clipPath id="_clip1"><rect x="0" y="0" width="1000" height="318"/></clipPath><g clip-path="url(#_clip1)"><g><g><path d="M579.6,82.5l0,161.5l-21.3,0l0,-31.6c-13.6,21.6 -36.5,35.5 -65.2,35.5c-45.5,0 -83.3,-36.8 -83.3,-84.6c0,-47.8 37.8,-84.6 83.3,-84.6c28.7,0 51.7,13.9 65.2,35.5l0,-31.7l21.3,0Zm-21.3,80.7c0,-35.8 -27.8,-63.9 -63.6,-63.9c-35.8,0 -63.7,28.1 -63.7,63.9c0,35.8 27.8,63.9 63.6,63.9c35.8,0 63.7,-28.1 63.7,-63.9Z" style="fill:#0078ff;"/><path d="M614.4,32.7c0,-8.4 6.8,-15.5 15.5,-15.5c8.7,0 15.5,7.1 15.5,15.5c0,8.4 -6.8,15.5 -15.5,15.5c-8.7,0 -15.5,-7.1 -15.5,-15.5Zm4.9,49.8l21.3,0l0,161.5l-21.3,0l0,-161.5Z" style="fill:#0078ff;"/><path d="M752.6,79.9l0,20.7c-25.8,0 -51,13.6 -51,53.6l0,89.8l-21.3,0l0,-161.5l21.3,0l0,26.8c11.3,-22.6 30.4,-29.4 51,-29.4Z" style="fill:#0078ff;"/><rect x="788.2" y="8.2" width="21.3" height="235.7" style="fill:#0078ff;"/><path d="M1000,82.5l-69.1,176.3c-12.3,31 -36.2,52 -65.2,49.7l0,-20c21,2.3 35.5,-12.6 44.2,-33.6l4.2,-10l-72.3,-162.4l22.6,0l60.7,135.3l52.3,-135.3l22.6,0Z" style="fill:#0078ff;"/></g><g><path d="M97.9,63.7c0.7,0 5.3,-0.4 10.4,-1.5c30.5,-6.2 42.7,-31.7 35.3,-62.2l-21.6,4.4c6.3,30.4 -11.8,56.8 -24.1,59.3Z" style="fill:#0078ff;"/><path d="M51,125.7c0.5,-0.5 3.8,-3.7 7,-7.8c19.3,-24.4 12.3,-51.7 -13,-70.3l-13.7,17.2c24.3,19.2 27.4,51.1 19.7,60.9Z" style="fill:#0078ff;"/><path d="M54.8,203.3c0.1,-0.7 0.5,-5.3 0.3,-10.5c-0.9,-31.1 -23.9,-47.5 -55.2,-45.5l0.6,22c31.1,-0.9 54,21.6 54.3,34Z" style="fill:#0078ff;"/><path d="M107.7,260.3c-0.4,-0.6 -3,-4.4 -6.5,-8.3c-20.6,-23.2 -48.8,-21.1 -71.5,0.6l14.6,16.5c23.2,-20.6 55.1,-18.1 63.4,-8.8Z" style="fill:#0078ff;"/><path d="M184.8,270c-0.7,-0.2 -5.1,-1.4 -10.3,-2.2c-30.7,-4.5 -50.9,15.2 -54.4,46.4l21.8,3.2c4.5,-30.6 30.6,-49.2 42.9,-47.4Z" style="fill:#0078ff;"/><path d="M250.2,227.9c-0.7,0.3 -4.8,2.2 -9.3,5c-26.5,16.3 -29.2,44.4 -11.8,70.5l18.7,-11.5c-16.3,-26.5 -8.3,-57.5 2.4,-64Z" style="fill:#0078ff;"/><path d="M273.1,153.6c-0.4,0.6 -2.3,4.8 -3.9,9.8c-9.8,29.5 6.2,52.8 36.3,61.6l6.9,-20.9c-29.5,-9.8 -43.3,-38.7 -39.3,-50.5Z" style="fill:#0078ff;"/><path d="M242.9,81.9c0.1,0.7 1.3,5.2 3.3,10c11.4,28.9 38.7,36.5 67.4,23.9l-8.1,-20.5c-28.9,11.5 -58,-1.8 -62.6,-13.4Z" style="fill:#0078ff;"/><path d="M173.7,46.4c0.6,0.5 4.3,3.1 8.9,5.6c27.3,14.8 53.1,3.1 67,-25l-19.4,-10.5c-14.6,27.3 -45.5,35.9 -56.5,29.9Z" style="fill:#0078ff;"/></g></g></g></svg>